<mxfile host="app.diagrams.net" agent="Mozilla/5.0 (Windows NT 10.0; Win64; x64) AppleWebKit/537.36 (KHTML, like Gecko) Chrome/139.0.0.0 Safari/537.36" version="28.1.1">
  <diagram name="ModelagemMarcenaria" id="2ggkFGDh75Yfp4ShFM5J">
    <mxGraphModel dx="1042" dy="562" grid="1" gridSize="10" guides="1" tooltips="1" connect="1" arrows="1" fold="1" page="1" pageScale="1" pageWidth="827" pageHeight="1169" math="0" shadow="0">
      <root>
        <mxCell id="0" />
        <mxCell id="1" parent="0" />
        <mxCell id="-vq7slk8FT3Xjvv0w4QI-1" value="materia prima" style="rounded=0;whiteSpace=wrap;html=1;" parent="1" vertex="1">
          <mxGeometry x="150" y="130" width="120" height="60" as="geometry" />
        </mxCell>
        <mxCell id="-vq7slk8FT3Xjvv0w4QI-51" style="edgeStyle=orthogonalEdgeStyle;rounded=0;orthogonalLoop=1;jettySize=auto;html=1;" parent="1" source="-vq7slk8FT3Xjvv0w4QI-12" target="-vq7slk8FT3Xjvv0w4QI-50" edge="1">
          <mxGeometry relative="1" as="geometry" />
        </mxCell>
        <mxCell id="-vq7slk8FT3Xjvv0w4QI-12" value="produto final" style="rounded=0;whiteSpace=wrap;html=1;" parent="1" vertex="1">
          <mxGeometry x="150" y="440" width="120" height="60" as="geometry" />
        </mxCell>
        <mxCell id="-vq7slk8FT3Xjvv0w4QI-19" value="ordem de produção" style="rounded=0;whiteSpace=wrap;html=1;" parent="1" vertex="1">
          <mxGeometry x="360" y="600" width="120" height="60" as="geometry" />
        </mxCell>
        <mxCell id="-vq7slk8FT3Xjvv0w4QI-35" style="edgeStyle=orthogonalEdgeStyle;rounded=0;orthogonalLoop=1;jettySize=auto;html=1;" parent="1" source="-vq7slk8FT3Xjvv0w4QI-32" target="-vq7slk8FT3Xjvv0w4QI-33" edge="1">
          <mxGeometry relative="1" as="geometry" />
        </mxCell>
        <mxCell id="-vq7slk8FT3Xjvv0w4QI-32" value="fornecedor" style="rounded=0;whiteSpace=wrap;html=1;" parent="1" vertex="1">
          <mxGeometry x="540" y="130" width="120" height="60" as="geometry" />
        </mxCell>
        <mxCell id="-vq7slk8FT3Xjvv0w4QI-33" value="Relationship" style="shape=rhombus;perimeter=rhombusPerimeter;whiteSpace=wrap;html=1;align=center;" parent="1" vertex="1">
          <mxGeometry x="353" y="130" width="120" height="60" as="geometry" />
        </mxCell>
        <mxCell id="-vq7slk8FT3Xjvv0w4QI-34" style="edgeStyle=orthogonalEdgeStyle;rounded=0;orthogonalLoop=1;jettySize=auto;html=1;" parent="1" source="-vq7slk8FT3Xjvv0w4QI-1" target="-vq7slk8FT3Xjvv0w4QI-33" edge="1">
          <mxGeometry relative="1" as="geometry" />
        </mxCell>
        <mxCell id="-vq7slk8FT3Xjvv0w4QI-54" style="edgeStyle=orthogonalEdgeStyle;rounded=0;orthogonalLoop=1;jettySize=auto;html=1;" parent="1" source="-vq7slk8FT3Xjvv0w4QI-36" target="-vq7slk8FT3Xjvv0w4QI-49" edge="1">
          <mxGeometry relative="1" as="geometry" />
        </mxCell>
        <mxCell id="-vq7slk8FT3Xjvv0w4QI-36" value="Relationship" style="shape=rhombus;perimeter=rhombusPerimeter;whiteSpace=wrap;html=1;align=center;" parent="1" vertex="1">
          <mxGeometry x="150" y="240" width="120" height="60" as="geometry" />
        </mxCell>
        <mxCell id="-vq7slk8FT3Xjvv0w4QI-37" style="edgeStyle=orthogonalEdgeStyle;rounded=0;orthogonalLoop=1;jettySize=auto;html=1;" parent="1" source="-vq7slk8FT3Xjvv0w4QI-1" target="-vq7slk8FT3Xjvv0w4QI-36" edge="1">
          <mxGeometry relative="1" as="geometry" />
        </mxCell>
        <mxCell id="-vq7slk8FT3Xjvv0w4QI-39" value="Relationship" style="shape=rhombus;perimeter=rhombusPerimeter;whiteSpace=wrap;html=1;align=center;" parent="1" vertex="1">
          <mxGeometry x="150" y="550" width="120" height="60" as="geometry" />
        </mxCell>
        <mxCell id="-vq7slk8FT3Xjvv0w4QI-40" style="rounded=0;orthogonalLoop=1;jettySize=auto;html=1;exitX=0.5;exitY=0;exitDx=0;exitDy=0;entryX=0.5;entryY=1;entryDx=0;entryDy=0;" parent="1" source="-vq7slk8FT3Xjvv0w4QI-39" target="-vq7slk8FT3Xjvv0w4QI-12" edge="1">
          <mxGeometry relative="1" as="geometry">
            <mxPoint x="250" y="549.96" as="sourcePoint" />
            <mxPoint x="260" y="509.96" as="targetPoint" />
          </mxGeometry>
        </mxCell>
        <mxCell id="-vq7slk8FT3Xjvv0w4QI-41" style="edgeStyle=orthogonalEdgeStyle;rounded=0;orthogonalLoop=1;jettySize=auto;html=1;entryX=0.5;entryY=1;entryDx=0;entryDy=0;exitX=-0.028;exitY=0.621;exitDx=0;exitDy=0;exitPerimeter=0;" parent="1" source="-vq7slk8FT3Xjvv0w4QI-19" target="-vq7slk8FT3Xjvv0w4QI-39" edge="1">
          <mxGeometry relative="1" as="geometry">
            <mxPoint x="330" y="680" as="sourcePoint" />
            <mxPoint x="330" y="650" as="targetPoint" />
          </mxGeometry>
        </mxCell>
        <mxCell id="-vq7slk8FT3Xjvv0w4QI-42" value="n" style="text;html=1;align=center;verticalAlign=middle;resizable=0;points=[];autosize=1;strokeColor=none;fillColor=none;" parent="1" vertex="1">
          <mxGeometry x="290" y="140" width="30" height="30" as="geometry" />
        </mxCell>
        <mxCell id="-vq7slk8FT3Xjvv0w4QI-43" value="1" style="text;html=1;align=center;verticalAlign=middle;resizable=0;points=[];autosize=1;strokeColor=none;fillColor=none;" parent="1" vertex="1">
          <mxGeometry x="505" y="128" width="30" height="30" as="geometry" />
        </mxCell>
        <mxCell id="-vq7slk8FT3Xjvv0w4QI-44" value="n" style="text;html=1;align=center;verticalAlign=middle;resizable=0;points=[];autosize=1;strokeColor=none;fillColor=none;" parent="1" vertex="1">
          <mxGeometry x="205" y="190" width="30" height="30" as="geometry" />
        </mxCell>
        <mxCell id="-vq7slk8FT3Xjvv0w4QI-45" value="n" style="text;html=1;align=center;verticalAlign=middle;resizable=0;points=[];autosize=1;strokeColor=none;fillColor=none;" parent="1" vertex="1">
          <mxGeometry x="170" y="410" width="30" height="30" as="geometry" />
        </mxCell>
        <mxCell id="-vq7slk8FT3Xjvv0w4QI-46" value="n" style="text;html=1;align=center;verticalAlign=middle;resizable=0;points=[];autosize=1;strokeColor=none;fillColor=none;" parent="1" vertex="1">
          <mxGeometry x="215" y="498" width="30" height="30" as="geometry" />
        </mxCell>
        <mxCell id="-vq7slk8FT3Xjvv0w4QI-47" value="1" style="text;html=1;align=center;verticalAlign=middle;resizable=0;points=[];autosize=1;strokeColor=none;fillColor=none;" parent="1" vertex="1">
          <mxGeometry x="325" y="598" width="30" height="30" as="geometry" />
        </mxCell>
        <mxCell id="-vq7slk8FT3Xjvv0w4QI-49" value="receita" style="rounded=0;whiteSpace=wrap;html=1;" parent="1" vertex="1">
          <mxGeometry x="275" y="330" width="120" height="60" as="geometry" />
        </mxCell>
        <mxCell id="-vq7slk8FT3Xjvv0w4QI-52" style="edgeStyle=orthogonalEdgeStyle;rounded=0;orthogonalLoop=1;jettySize=auto;html=1;" parent="1" source="-vq7slk8FT3Xjvv0w4QI-50" target="-vq7slk8FT3Xjvv0w4QI-49" edge="1">
          <mxGeometry relative="1" as="geometry" />
        </mxCell>
        <mxCell id="-vq7slk8FT3Xjvv0w4QI-50" value="Relationship" style="shape=rhombus;perimeter=rhombusPerimeter;whiteSpace=wrap;html=1;align=center;" parent="1" vertex="1">
          <mxGeometry x="80" y="330" width="120" height="60" as="geometry" />
        </mxCell>
        <mxCell id="-vq7slk8FT3Xjvv0w4QI-55" value="1&lt;div&gt;&lt;br&gt;&lt;/div&gt;" style="text;html=1;align=center;verticalAlign=middle;resizable=0;points=[];autosize=1;strokeColor=none;fillColor=none;" parent="1" vertex="1">
          <mxGeometry x="345" y="293" width="30" height="40" as="geometry" />
        </mxCell>
        <mxCell id="-vq7slk8FT3Xjvv0w4QI-56" value="1&lt;div&gt;&lt;br&gt;&lt;/div&gt;" style="text;html=1;align=center;verticalAlign=middle;resizable=0;points=[];autosize=1;strokeColor=none;fillColor=none;" parent="1" vertex="1">
          <mxGeometry x="245" y="333" width="30" height="40" as="geometry" />
        </mxCell>
      </root>
    </mxGraphModel>
  </diagram>
</mxfile>
